<svg class="svg-icon" style="width: 1em;height: 1em;vertical-align: middle;fill: currentColor;overflow: hidden;" viewBox="0 0 1024 1024" version="1.1" xmlns="http://www.w3.org/2000/svg"><path d="M570.274909 515.397818l128 128a38.772364 38.772364 0 0 1-54.923636 54.830546l-128-128-127.953455 128a38.772364 38.772364 0 0 1-54.830545-54.830546l128-128-128-128a38.772364 38.772364 0 1 1 54.830545-54.830545l128 128 128-128a38.772364 38.772364 0 1 1 54.830546 54.830545l-128 128z"  /><path d="M812.125091 156.206545L759.761455 213.643636a387.909818 387.909818 0 1 0 139.915636 285.509819h77.591273c0.139636 4.328727 0.186182 8.610909 0.186181 12.89309 0 257.070545-208.384 465.454545-465.454545 465.454546S46.545455 769.070545 46.545455 512 254.929455 46.545455 512 46.545455c114.362182 0 219.089455 41.239273 300.125091 109.66109z"  /><path d="M899.863273 499.060364a38.772364 38.772364 0 1 0 77.591272 0 38.772364 38.772364 0 0 0-77.591272 0zM782.801455 220.997818a38.772364 38.772364 0 1 0 0-77.544727 38.772364 38.772364 0 0 0 0 77.544727z"  /></svg>